<?xml version="1.0" standalone="no"?>
<!DOCTYPE svg PUBLIC "-//W3C//DTD SVG 20010904//EN"
 "http://www.w3.org/TR/2001/REC-SVG-20010904/DTD/svg10.dtd">
<svg version="1.0" xmlns="http://www.w3.org/2000/svg"
 width="128.000000pt" height="128.000000pt" viewBox="0 0 128.000000 128.000000"
 preserveAspectRatio="xMidYMid meet">

<g transform="translate(0.000000,128.000000) scale(0.100000,-0.100000)"
fill="#000000" stroke="none">
<path d="M427 1156 c-209 -87 -347 -294 -347 -519 1 -321 285 -581 606 -554
79 7 176 39 248 81 96 56 215 201 201 245 -10 32 -33 32 -93 2 -196 -98 -422
-45 -552 128 -61 81 -83 150 -84 261 0 114 21 178 90 270 75 99 47 134 -69 86z"/>
</g>
</svg>
