<?xml version="1.0" standalone="no"?>
<!DOCTYPE svg PUBLIC "-//W3C//DTD SVG 20010904//EN"
 "http://www.w3.org/TR/2001/REC-SVG-20010904/DTD/svg10.dtd">
<svg version="1.0" xmlns="http://www.w3.org/2000/svg"
 width="128.000000pt" height="128.000000pt" viewBox="0 0 128.000000 128.000000"
 preserveAspectRatio="xMidYMid meet">

<g transform="translate(0.000000,128.000000) scale(0.100000,-0.100000)"
fill="#000000" stroke="none">
<path d="M214 1161 c-192 -90 -266 -316 -170 -518 45 -94 101 -167 212 -273
131 -126 343 -280 384 -280 49 0 308 198 437 334 194 206 247 385 164 562 -58
124 -161 195 -291 202 -106 5 -175 -22 -252 -99 l-58 -57 -58 57 c-103 104
-243 131 -368 72z"/>
</g>
</svg>
