<?xml version="1.0" standalone="no"?>
<!DOCTYPE svg PUBLIC "-//W3C//DTD SVG 20010904//EN"
 "http://www.w3.org/TR/2001/REC-SVG-20010904/DTD/svg10.dtd">
<svg version="1.0" xmlns="http://www.w3.org/2000/svg"
 width="128.000000pt" height="128.000000pt" viewBox="0 0 128.000000 128.000000"
 preserveAspectRatio="xMidYMid meet">

<g transform="translate(0.000000,128.000000) scale(0.100000,-0.100000)"
fill="#000000" stroke="none">
<path d="M613 1168 c-6 -7 -45 -82 -87 -165 -59 -118 -81 -154 -98 -158 -13
-2 -90 -14 -171 -25 -172 -25 -174 -25 -183 -52 -5 -17 19 -46 126 -153 l132
-133 -30 -173 c-31 -181 -30 -209 8 -209 10 0 87 36 171 80 83 44 155 80 160
80 5 0 76 -36 159 -80 83 -44 159 -80 170 -80 38 0 39 28 8 209 l-30 173 132
133 c107 107 131 136 126 153 -9 27 -11 28 -188 52 -84 12 -161 25 -172 29
-11 4 -52 72 -100 166 -62 122 -86 161 -102 163 -11 2 -25 -3 -31 -10z"/>
</g>
</svg>
